
        <svg xmlns="http://www.w3.org/2000/svg" xmlns:xlink="http://www.w3.org/1999/xlink" version="1.1" width="3171.4285714285716" 
        height="1983.85022075189" viewBox="0 0 3171.4285714285716 1983.85022075189">
			
			<g transform="scale(8.571428571428571) translate(10, 10)">
				<defs id="SvgjsDefs1020"></defs><g id="SvgjsG1021" featureKey="41S5F6-0" transform="matrix(-1.3999976501504285,0,0,1.3999976501504285,245.00013563684706,-4.285394294458428)" fill="#8a1d82"><g xmlns="http://www.w3.org/2000/svg"><g><g><path d="M99.991,47.9l-0.003,0.088C99.756,53.874,94.8,58.461,88.909,58.23c-5.601-0.217-10.022-4.76-10.241-10.266l-0.006-0.086     c-0.219-5.891,4.378-10.843,10.27-11.063c5.893-0.218,10.842,4.379,11.061,10.271C100.003,47.351,100.003,47.64,99.991,47.9z"></path><path d="M90.161,76.838l-0.048,0.067c-3.168,4.302-9.215,5.22-13.518,2.055c-4.072-2.998-5.092-8.623-2.496-12.858l0.045-0.067     c2.807-4.546,8.76-5.954,13.305-3.154c4.546,2.806,5.957,8.763,3.15,13.308C90.468,76.404,90.313,76.634,90.161,76.838z"></path><path d="M66.318,94.998l-0.076,0.027c-4.499,1.619-9.461-0.719-11.079-5.217C53.63,85.545,55.68,80.855,59.721,79l0.075-0.037     c4.353-1.98,9.49-0.063,11.474,4.293c1.986,4.354,0.065,9.49-4.289,11.477C66.768,94.828,66.534,94.919,66.318,94.998z"></path><path d="M36.984,96.71l-0.083-0.021c-4.1-1.021-6.598-5.178-5.576-9.276c0.97-3.894,4.794-6.339,8.687-5.699l0.083,0.013     c4.172,0.699,6.988,4.642,6.293,8.814c-0.697,4.168-4.643,6.988-8.814,6.291C37.38,96.801,37.172,96.755,36.984,96.71z"></path><path d="M12.201,82.046l-0.055-0.063c-2.456-2.729-2.233-6.931,0.5-9.391c2.586-2.326,6.516-2.228,9.008,0.107l0.06,0.057     c2.672,2.52,2.794,6.73,0.273,9.405c-2.521,2.672-6.731,2.797-9.405,0.276C12.453,82.314,12.318,82.174,12.201,82.046z"></path><path d="M0.067,56.58l-0.011-0.085c-0.435-3.086,1.716-5.938,4.803-6.373c2.924-0.413,5.646,1.521,6.292,4.347l0.019,0.079     c0.684,3.044-1.226,6.063-4.271,6.753c-3.041,0.684-6.064-1.228-6.749-4.271C0.117,56.883,0.088,56.725,0.067,56.58z"></path><path d="M4.139,29.247l0.039-0.074c1.115-2.307,3.891-3.271,6.197-2.154c2.188,1.059,3.159,3.627,2.302,5.854l-0.03,0.077     c-0.93,2.39-3.617,3.574-6.007,2.648c-2.39-0.928-3.576-3.617-2.649-6.007C4.036,29.476,4.088,29.357,4.139,29.247z"></path><path d="M22.376,9.3l0.069-0.04c1.731-1.013,3.958-0.429,4.97,1.303c0.96,1.64,0.476,3.732-1.051,4.808l-0.067,0.046     c-1.643,1.153-3.912,0.755-5.063-0.89c-1.153-1.644-0.754-3.913,0.89-5.065C22.204,9.407,22.292,9.35,22.376,9.3z"></path><path d="M48.082,3.066l0.086,0.005c1.45,0.086,2.553,1.333,2.467,2.781c-0.083,1.377-1.226,2.444-2.583,2.47l-0.086,0.001     c-1.453,0.024-2.65-1.135-2.674-2.587c-0.024-1.454,1.135-2.651,2.588-2.675C47.946,3.062,48.017,3.063,48.082,3.066z"></path><path d="M72.35,12.042l0.063,0.049c0.712,0.547,0.845,1.566,0.298,2.277c-0.519,0.673-1.465,0.825-2.171,0.374l-0.064-0.045     c-0.757-0.489-0.973-1.495-0.484-2.25c0.488-0.754,1.496-0.971,2.25-0.48C72.275,11.989,72.314,12.017,72.35,12.042z"></path><path d="M87.127,32.569l0.025,0.078c0.106,0.323-0.068,0.674-0.389,0.782c-0.307,0.104-0.642-0.051-0.766-0.343l-0.031-0.072     c-0.136-0.316,0.01-0.68,0.326-0.817c0.313-0.136,0.68,0.01,0.813,0.326C87.115,32.538,87.121,32.553,87.127,32.569z"></path></g></g></g></g><g id="SvgjsG1022" featureKey="RGwKHf-0" transform="matrix(2.8483073553312974,0,0,2.8483073553312974,-2.8483073553312974,134.5937516977235)" fill="#296e8f"><path d="M1 20 l2.76 -5.24 l9.7 0.02 l-3.58 -6.78 l-2.64 4.96 l-2.52 0 l3.7 -6.96 l2.9 0 l7.42 14 l-2.54 0 l-1.62 -3.14 l-9.42 0 l-1.62 3.14 l-2.54 0 z M35.260000000000005 7.199999999999999 c0.84 0.8 1.24 1.86 1.24 3.18 c0 1.4 -0.42 2.46 -1.3 3.2 c-0.86 0.74 -2.14 1.1 -3.8 1.1 l-8.32 0 l0 5.32 l-2.34 0 l0 -7.4 l10.7 0 c1.8 0 2.7 -0.74 2.7 -2.18 c0 -1.54 -0.96 -2.32 -2.86 -2.32 l-8.2 0 l0 2.68 l-2.34 0 l0 -4.78 l11.1 0.02 c1.44 0 2.58 0.4 3.42 1.18 z M53.019999999999996 7.199999999999999 c0.84 0.8 1.24 1.86 1.24 3.18 c0 1.4 -0.42 2.46 -1.3 3.2 c-0.86 0.74 -2.14 1.1 -3.8 1.1 l-8.32 0 l0 5.32 l-2.34 0 l0 -7.4 l10.7 0 c1.8 0 2.7 -0.74 2.7 -2.18 c0 -1.54 -0.96 -2.32 -2.86 -2.32 l-8.2 0 l0 2.68 l-2.34 0 l0 -4.78 l11.1 0.02 c1.44 0 2.58 0.4 3.42 1.18 z M69.4 6 l2.26 0 l0 9.2 c0 1.4 -0.7 2.56 -2.06 3.42 c-1.4 0.92 -3.28 1.38 -5.62 1.38 s-4.22 -0.46 -5.64 -1.38 c-1.38 -0.88 -2.08 -2.02 -2.08 -3.42 l0 -9.2 l2.26 0 l0 8.66 c0 1.06 0.46 1.86 1.4 2.44 c0.94 0.56 2.28 0.84 4.06 0.84 s3.12 -0.28 4.04 -0.84 c0.92 -0.58 1.38 -1.38 1.38 -2.44 l0 -8.66 z M73.66000000000001 20 l0 -14 l2.32 0 l0 14 l-2.32 0 z M87.24000000000001 6 l2.32 0 l0 14 l-2.9 0 l-8.86 -9.52 l0 -3.06 l9.44 10.06 l0 -11.48 z M91.56000000000002 6 l15.7 0 l0 2.1 l-15.7 0 l0 -2.1 z M98.24000000000001 10 l2.32 0 l0 10 l-2.32 0 l0 -10 z M122.00000000000001 8.04 c1.24 1.32 1.88 2.96 1.88 4.94 s-0.64 3.62 -1.9 4.94 c-1.42 1.52 -3.28 2.26 -5.54 2.26 c-2.24 0 -4.12 -0.76 -5.56 -2.28 c-1.24 -1.34 -1.88 -2.98 -1.88 -4.92 c0 -1.96 0.64 -3.6 1.88 -4.92 c1.44 -1.52 3.32 -2.3 5.56 -2.3 c2.28 0 4.14 0.78 5.56 2.28 z M120.14000000000001 16.7 c0.98 -0.92 1.46 -2.16 1.46 -3.72 s-0.48 -2.8 -1.46 -3.72 c-0.94 -0.94 -2.2 -1.4 -3.7 -1.4 c-1.62 0 -2.9 0.54 -3.88 1.62 c-0.86 0.94 -1.3 2.1 -1.3 3.5 c0 1.5 0.5 2.74 1.48 3.7 c0.94 0.94 2.2 1.42 3.7 1.42 c1.52 0 2.78 -0.46 3.7 -1.4 z"></path></g><g id="SvgjsG1023" featureKey="UxezYZ-0" transform="matrix(0.5197575501890226,0,0,0.5197575501890226,20.875257563398556,200.80455778326908)" fill="#8a1d82"><path d="M14.26 8.46 l-5.22 0 l0 11.54 l-3.56 0 l0 -11.54 l-5.24 0 l0 -2.58 l14.02 0 l0 2.58 z M43.784000000000006 20 l-4.18 0 l-3.76 -5.68 l-4.04 0 l0 5.68 l-3.52 0 l0 -14.12 l9.72 0 c1.22 0 1.76 0.08 2.34 0.26 c1.82 0.54 2.82 2.1 2.82 3.96 c0 0.36 -0.02 1.06 -0.38 1.86 c-0.64 1.44 -1.86 1.88 -3.3 2.14 z M39.584 10.14 c0 -0.14 -0.02 -0.66 -0.28 -1.06 c-0.44 -0.68 -1.22 -0.72 -1.94 -0.72 l-5.56 0 l0 3.46 l5.66 0 c0.02 0 0.58 0.02 0.88 -0.06 c0.42 -0.1 1.24 -0.46 1.24 -1.62 z M74.06800000000001 20 l-3.96 0 l-1.2 -2.66 l-7.24 0 l-1.2 2.66 l-3.86 0 l6.82 -14.12 l3.82 0 z M67.768 14.84 l-2.46 -5.52 l-2.5 5.52 l4.96 0 z M103.33200000000002 20 l-3.48 0 l-8.72 -9.9 l0 9.9 l-3.36 0 l0 -14.12 l3.54 0 l8.66 9.86 l0 -9.86 l3.36 0 l0 14.12 z M132.616 8.82 l-3.34 0.84 c-0.14 -0.24 -0.24 -0.38 -0.32 -0.46 c-0.88 -1.02 -2.52 -1.24 -3.76 -1.24 c-0.22 0 -0.64 0 -1.18 0.08 c-0.12 0.02 -1.98 0.16 -1.98 1.56 c0 0.72 0.5 1.02 1.12 1.22 c1 0.3 3.52 0.66 4.54 0.86 c1 0.18 1.44 0.28 1.92 0.44 c0.82 0.28 2.86 1 2.84 3.62 c0 1.28 -0.46 3.3 -3.34 4.22 c-0.78 0.24 -1.54 0.34 -2.34 0.42 c-0.5 0.04 -1 0.06 -1.5 0.06 c-2.52 0 -3.92 -0.52 -4.92 -1.06 c-0.16 -0.08 -0.56 -0.32 -0.98 -0.64 c-0.78 -0.62 -1.34 -1.44 -1.48 -1.68 c-0.14 -0.2 -0.24 -0.4 -0.34 -0.6 l3.22 -0.82 c0.84 1.76 3.02 2.2 4.74 2.2 c0.14 0 1.92 0.02 2.88 -0.64 c0.18 -0.12 0.68 -0.52 0.68 -1.22 c0 -0.38 -0.16 -0.72 -0.46 -0.94 c-0.44 -0.34 -1.36 -0.48 -2.64 -0.68 c-2.6 -0.4 -4 -0.6 -5.14 -1.14 c-0.64 -0.3 -2.22 -1.22 -2.22 -3.36 c0 -1.88 1.16 -2.82 1.72 -3.2 c0.9 -0.62 2.36 -1.22 4.88 -1.22 c2.4 0 3.68 0.42 4.68 0.9 c0.36 0.16 1.04 0.48 1.76 1.2 c0.46 0.46 0.64 0.74 0.96 1.28 z M160.14000000000004 8.42 l-9.54 0 l0 3.6 l8.98 0 l0 2.52 l-8.98 0 l0 5.46 l-3.52 0 l0 -14.12 l13.06 0 l0 2.54 z M190.44400000000002 12.8 c0 0.28 0 1.02 -0.16 1.8 c-0.18 0.94 -0.74 2.98 -2.88 4.42 c-0.98 0.64 -2.78 1.44 -5.58 1.44 c-4.2 0 -6.42 -1.7 -7.44 -3.2 c-0.48 -0.68 -1.26 -2.16 -1.26 -4.32 c0 -3.26 1.58 -4.96 2.62 -5.76 c1.54 -1.18 3.6 -1.66 5.5 -1.74 c1.76 -0.06 3.88 0.22 5.46 1 c0.22 0.12 0.62 0.32 1.12 0.68 c0.4 0.3 0.8 0.66 1.12 1.06 c0.6 0.7 1.5 2.26 1.5 4.62 z M186.84400000000002 12.96 c0 -0.6 -0.08 -2.14 -1.26 -3.44 c-0.98 -1.08 -2.5 -1.58 -3.96 -1.54 c-0.32 0.02 -1.16 0.08 -2.04 0.46 c-2.62 1.16 -2.82 3.66 -2.82 4.6 c0 0.28 0.02 1.2 0.38 2.04 c0.1 0.26 0.22 0.52 0.54 0.96 c0.1 0.12 0.36 0.5 0.72 0.8 c0.56 0.48 1.64 1.08 3.38 1.08 c0.32 0 1.16 -0.02 2.04 -0.34 c2.78 -1 3.02 -3.74 3.02 -4.62 z M220.60800000000003 20 l-4.18 0 l-3.76 -5.68 l-4.04 0 l0 5.68 l-3.52 0 l0 -14.12 l9.72 0 c1.22 0 1.76 0.08 2.34 0.26 c1.82 0.54 2.82 2.1 2.82 3.96 c0 0.36 -0.02 1.06 -0.38 1.86 c-0.64 1.44 -1.86 1.88 -3.3 2.14 z M216.40800000000002 10.14 c0 -0.14 -0.02 -0.66 -0.28 -1.06 c-0.44 -0.68 -1.22 -0.72 -1.94 -0.72 l-5.56 0 l0 3.46 l5.66 0 c0.02 0 0.58 0.02 0.88 -0.06 c0.42 -0.1 1.24 -0.46 1.24 -1.62 z M253.21200000000005 20 l-3.36 0 l0.08 -10.86 l-4.54 10.86 l-3.22 0 l-4.58 -10.86 l0.08 10.86 l-3.36 0 l0 -14.12 l5.12 0 l4.38 10.36 l4.34 -10.36 l5.06 0 l0 14.12 z M284.47600000000006 20 l-3.96 0 l-1.2 -2.66 l-7.24 0 l-1.2 2.66 l-3.86 0 l6.82 -14.12 l3.82 0 z M278.17600000000004 14.84 l-2.46 -5.52 l-2.5 5.52 l4.96 0 z M313.70000000000005 15.2 c-0.2 0.72 -0.32 0.98 -0.5 1.34 c-0.22 0.44 -0.6 1.08 -1.46 1.84 c-1.16 1.02 -3.02 2.1 -6.5 2.1 c-0.8 0 -3.6 -0.02 -5.8 -1.66 c-2.56 -1.9 -2.68 -4.86 -2.68 -5.9 c0 -1.44 0.34 -2.94 1.14 -4.14 c0.28 -0.42 0.54 -0.72 0.9 -1.06 c0.48 -0.46 0.72 -0.62 1 -0.8 c0.92 -0.62 2.82 -1.48 5.64 -1.48 c0.78 0 3.5 0.06 5.7 1.54 c1.2 0.8 1.86 1.8 2.12 2.26 c0.1 0.2 0.2 0.4 0.28 0.6 l-3.86 0.48 c-0.22 -0.34 -0.62 -0.96 -1.42 -1.5 c-0.46 -0.3 -1.42 -0.78 -2.82 -0.78 c-0.36 0 -1.26 0.02 -2.2 0.42 c-1.84 0.76 -2.82 2.52 -2.82 4.5 c0 0.98 0.3 2.06 0.88 2.88 c0.12 0.18 0.42 0.54 0.88 0.9 c0.54 0.44 1.62 1.14 3.36 1.14 c2.06 0 3.16 -0.86 3.72 -1.52 c0.24 -0.26 0.4 -0.52 0.72 -1.12 z M331.0640000000001 20 l-3.54 0 l0 -14.12 l3.54 0 l0 14.12 z M357.42800000000005 2.3000000000000007 l-2.44 2.48 l-2.02 0 l1.04 -2.48 l3.42 0 z M362.968 12.8 c0 0.28 0 1.02 -0.16 1.8 c-0.18 0.94 -0.74 2.98 -2.88 4.42 c-0.98 0.64 -2.78 1.44 -5.58 1.44 c-4.2 0 -6.42 -1.7 -7.44 -3.2 c-0.48 -0.68 -1.26 -2.16 -1.26 -4.32 c0 -3.26 1.58 -4.96 2.62 -5.76 c1.54 -1.18 3.6 -1.66 5.5 -1.74 c1.76 -0.06 3.88 0.22 5.46 1 c0.22 0.12 0.62 0.32 1.12 0.68 c0.4 0.3 0.8 0.66 1.12 1.06 c0.6 0.7 1.5 2.26 1.5 4.62 z M359.36800000000005 12.96 c0 -0.6 -0.08 -2.14 -1.26 -3.44 c-0.98 -1.08 -2.5 -1.58 -3.96 -1.54 c-0.32 0.02 -1.16 0.08 -2.04 0.46 c-2.62 1.16 -2.82 3.66 -2.82 4.6 c0 0.28 0.02 1.2 0.38 2.04 c0.1 0.26 0.22 0.52 0.54 0.96 c0.1 0.12 0.36 0.5 0.72 0.8 c0.56 0.48 1.64 1.08 3.38 1.08 c0.32 0 1.16 -0.02 2.04 -0.34 c2.78 -1 3.02 -3.74 3.02 -4.62 z M393.172 20 l-3.48 0 l-8.72 -9.9 l0 9.9 l-3.36 0 l0 -14.12 l3.54 0 l8.66 9.86 l0 -9.86 l3.36 0 l0 14.12 z M443.6 12.879999999999999 c0 2.9 -1.22 4.48 -2.08 5.28 c-0.4 0.38 -1.24 1.1 -2.64 1.5 c-0.88 0.26 -1.62 0.34 -3.44 0.34 l-7.28 0 l0 -14.12 l7.74 0 c1.76 0 3.24 0.16 4.78 1.12 c0.22 0.14 0.68 0.42 1.14 0.9 c1.26 1.3 1.78 3.2 1.78 4.98 z M440.08 12.780000000000001 c0 -0.34 0.02 -2.48 -1.3 -3.6 c-0.14 -0.12 -0.48 -0.36 -0.96 -0.54 c-0.52 -0.18 -0.96 -0.26 -2.06 -0.26 l-4.08 0 l0 9.12 l3.92 0 c0.2 0 1.32 0.04 2.18 -0.28 c1.24 -0.44 2.3 -1.66 2.3 -4.44 z M461.78400000000005 20 l-3.54 0 l0 -14.12 l3.54 0 l0 14.12 z M493.4080000000001 20 l-2.7 0 l0 -1.62 c-0.16 0.16 -0.32 0.3 -0.5 0.44 c-0.6 0.48 -1.86 1.24 -3.78 1.5 c-0.52 0.08 -1.06 0.1 -1.56 0.1 c-3 0 -4.66 -0.8 -5.72 -1.58 c-0.82 -0.6 -2.1 -1.7 -2.6 -4.12 c-0.06 -0.3 -0.2 -1.02 -0.2 -1.84 c0 -2.56 1.28 -4.3 1.9 -4.96 c0.38 -0.4 0.88 -0.8 1.34 -1.1 c1.78 -1.12 3.72 -1.42 5.78 -1.42 c0.96 0 4.7 0.02 7.1 2.66 c0.4 0.46 0.64 0.84 0.94 1.36 l-3.9 0.54 c-0.08 -0.1 -0.42 -0.52 -0.78 -0.84 c-0.94 -0.8 -2.24 -1.1 -3.5 -1.1 c-1.72 0 -3.54 0.62 -4.5 2.14 c-0.28 0.44 -0.74 1.42 -0.74 2.76 c0 0.32 0.02 1.1 0.36 1.96 c1.1 2.82 4.18 2.96 5 2.96 c1.54 0 3.38 -0.52 4.44 -1.72 c0.44 -0.5 0.56 -0.9 0.66 -1.14 l-4.62 0 l0 -2.54 l7.58 0 l0 7.56 z M511.89200000000005 20 l-3.54 0 l0 -14.12 l3.54 0 l0 14.12 z M539.856 8.46 l-5.22 0 l0 11.54 l-3.56 0 l0 -11.54 l-5.24 0 l0 -2.58 l14.02 0 l0 2.58 z M567.72 20 l-3.96 0 l-1.2 -2.66 l-7.24 0 l-1.2 2.66 l-3.86 0 l6.82 -14.12 l3.82 0 z M561.42 14.84 l-2.46 -5.52 l-2.5 5.52 l4.96 0 z M592.8240000000001 20 l-11.38 0 l0 -14.12 l3.54 0 l0 11.52 l7.84 0 l0 2.6 z"></path></g>
			</g>
		</svg>
	